<?xml version="1.0" encoding="utf-8"?>
<!-- Generator: Adobe Illustrator 24.1.3, SVG Export Plug-In . SVG Version: 6.00 Build 0)  -->
<svg version="1.1" id="Layer_1" xmlns="http://www.w3.org/2000/svg" xmlns:xlink="http://www.w3.org/1999/xlink" x="0px" y="0px"
	 viewBox="0 0 234 46" style="enable-background:new 0 0 234 46;" xml:space="preserve" width="234">
<style type="text/css">
	.st0{fill:#919191;}
	.st1{fill:#0EBEE9;}
	.st2{fill:#4680C2;}
	.st3{fill:#414142;}
</style>
<path class="st0" d="M34.4,41.6V25.3l3.3-0.4l0.5,2.5c1.1-1.8,2.7-2.6,4.8-2.6c0.4,0,0.8,0,1.1,0.1L44,28.3
	c-0.4-0.1-0.8-0.1-1.3-0.1c-1.5,0-2.6,0.4-3.3,1.2c-0.7,0.8-1.1,1.9-1.1,3.2v9H34.4z"/>
<path class="st0" d="M50.5,19.1v3.2h-4v-3L50.5,19.1z"/>
<path class="st0" d="M50.5,25h-4v16.7h4V25z"/>
<path class="st0" d="M55.6,41.6v-14h-2.7v-2.2l2.7-0.4v-1c0-1,0.1-1.9,0.3-2.6s0.5-1.3,0.9-1.8s1-0.9,1.7-1.1s1.6-0.4,2.6-0.4
	s2,0.1,3.1,0.3l-0.4,3c-0.8-0.1-1.5-0.2-2-0.2c-0.9,0-1.4,0.2-1.8,0.6c-0.4,0.4-0.5,1.1-0.5,2V25H63l0.2,2.7h-3.7v14h-3.9V41.6z"/>
<g>
	<path class="st1" d="M12.9,2.1L12.9,2.1c2.6,2.3,4,4.6,4.1,6.8c0,2-1.1,4-3.3,5.8V9.3c0-0.4-0.3-0.8-0.8-0.8V2.1z"/>
	<path class="st2" d="M12.9,8.5c-0.4,0-0.8,0.3-0.8,0.8v5.4c-2.2-1.9-3.3-3.8-3.3-5.8c0.1-2.2,1.5-4.5,4.1-6.8V8.5z"/>
	<path class="st2" d="M27.2,21.3c-0.1-0.2-0.3-0.3-0.5-0.3c-0.2-0.1-0.4,0-0.6,0.1l-0.7,0.4c0.8-2.3,3.1-1.7,4-1.5L27.2,21.3z"/>
	<path class="st1" d="M29.5,20c-0.3,0.9-0.8,3.1-3.3,2.7l0.7-0.4c0.2-0.1,0.3-0.2,0.4-0.5c0.1-0.2,0-0.4-0.1-0.5L29.5,20z"/>
	<path class="st3" d="M26.2,22.7l0.7-0.4c0.2-0.1,0.3-0.2,0.4-0.5c0.1-0.4-0.2-0.8-0.5-0.9c-0.2-0.1-0.4,0-0.6,0.1l-0.7,0.4
		c0.8-2.3,3.1-1.7,4-1.5C29.2,20.9,28.7,23.1,26.2,22.7z M21.1,25.9c-0.6,0-1.1-0.5-1.1-1.1s0.5-1.1,1.1-1.1s1.1,0.5,1.1,1.1
		C22.3,25.4,21.8,25.9,21.1,25.9z M22.3,34.1c0,0.6-0.5,1.1-1.1,1.1s-1.1-0.5-1.1-1.1s0.5-1.1,1.1-1.1C21.7,33,22.3,33.5,22.3,34.1z
		 M15.4,30c0-0.2,0.1-0.3,0.1-0.5s0-0.4-0.1-0.5l4-2.3c0.3,0.2,0.6,0.4,1,0.6v4.6c-0.3,0.1-0.6,0.3-0.9,0.5L15.4,30z M18.6,34.6
		l-4.1,2.3c-0.3-0.2-0.6-0.4-0.9-0.5v-4.6c0.3-0.1,0.7-0.3,0.9-0.5l4.1,2.3c0,0.2-0.1,0.4-0.1,0.6C18.6,34.3,18.6,34.5,18.6,34.6z
		 M12.9,39.9c-0.6,0-1.1-0.5-1.1-1.1s0.5-1.1,1.1-1.1s1.1,0.5,1.1,1.1S13.5,39.9,12.9,39.9z M7.2,34.6c0-0.2,0-0.3,0-0.5
		s0-0.4-0.1-0.6l4.1-2.3c0.3,0.2,0.6,0.4,0.9,0.5v4.6c-0.3,0.1-0.7,0.3-0.9,0.5L7.2,34.6z M6.3,32.3c-0.3-0.2-0.6-0.4-0.9-0.5v-4.6
		c0.4-0.1,0.7-0.3,0.9-0.6l4,2.3c0,0.2-0.1,0.3-0.1,0.5s0,0.4,0.1,0.5L6.3,32.3z M4.7,35.3c-0.6,0-1.1-0.5-1.1-1.1s0.5-1.1,1.1-1.1
		s1.1,0.5,1.1,1.1S5.3,35.3,4.7,35.3z M3.6,24.8c0-0.6,0.5-1.1,1.1-1.1s1.1,0.5,1.1,1.1s-0.5,1.1-1.1,1.1S3.6,25.4,3.6,24.8z
		 M11.2,21.9c0.3,0.2,0.6,0.4,0.9,0.5V27c-0.4,0.1-0.7,0.3-0.9,0.5l-4-2.3c0-0.2,0-0.3,0-0.5s0-0.4-0.1-0.6L11.2,21.9z M12.9,19
		c0.6,0,1.1,0.5,1.1,1.1s-0.5,1.1-1.1,1.1s-1.1-0.5-1.1-1.1C11.8,19.5,12.3,19,12.9,19z M8.8,8.8c0.1-2.2,1.5-4.5,4.1-6.8l0,0
		c2.6,2.3,4,4.6,4.1,6.8c0,2-1.1,4-3.3,5.8V9.3c0-0.4-0.3-0.8-0.8-0.8c-0.4,0-0.8,0.3-0.8,0.8v5.4C9.9,12.8,8.8,10.9,8.8,8.8z
		 M14,29.4c0,0.6-0.5,1.1-1.1,1.1s-1.1-0.5-1.1-1.1s0.5-1.1,1.1-1.1S14,28.8,14,29.4z M18.7,24.3c0,0.2-0.1,0.4-0.1,0.6s0,0.3,0,0.5
		l-4,2.3c-0.3-0.2-0.6-0.4-0.9-0.5v-4.6c0.3-0.1,0.6-0.3,0.9-0.5L18.7,24.3z M30.6,18.7c0,0-2.8-1.1-4.7,0c-1.1,0.6-1.9,1.8-2.1,3.7
		l-1,0.6c-0.4-0.4-1-0.6-1.7-0.6c-0.6,0-1.2,0.2-1.7,0.6l0,0l-4.1-2.3c0-0.2,0.1-0.4,0.1-0.6c0-1.1-0.7-2-1.8-2.4v-1.1l0.4-0.3l0,0
		c3.1-2.4,4.6-4.9,4.5-7.6c0-2.7-1.7-5.5-5.1-8.4c-0.1-0.1-0.3-0.2-0.4-0.2h-0.1c-0.2,0-0.3,0.1-0.4,0.2C9,3.3,7.3,6.1,7.3,8.8
		c-0.1,2.6,1.4,5.2,4.5,7.6l0.4,0.3v1.1c-1,0.3-1.8,1.3-1.8,2.4c0,0.2,0,0.4,0.1,0.6L6.4,23c-0.4-0.4-1-0.6-1.7-0.6
		c-1.4,0-2.5,1.1-2.5,2.5c0,1.1,0.7,2,1.8,2.4v4.6c-1,0.3-1.8,1.3-1.8,2.4c0,1.4,1.1,2.5,2.5,2.5c0.7,0,1.3-0.3,1.7-0.7l4,2.3
		c0,0.2-0.1,0.4-0.1,0.5c0,1.4,1.1,2.5,2.5,2.5s2.5-1.1,2.5-2.5c0-0.2,0-0.4-0.1-0.5l4-2.3c0.5,0.4,1.1,0.7,1.7,0.7
		c1.4,0,2.5-1.1,2.5-2.5c0-1.1-0.7-2-1.8-2.4v-4.6c1-0.3,1.8-1.3,1.8-2.4c0-0.2,0-0.4-0.1-0.6l0.9-0.5c1.9,0.8,3.4,0.7,4.4,0
		c1.8-1.1,2.3-4.1,2.3-4.1C31.2,19.3,30.9,18.8,30.6,18.7z"/>
</g>
<g>
	<path class="st0" d="M70.9,40.2c-0.9-1-1.4-2.3-1.5-4c0-0.4,0-1,0-1.8c0-0.8,0-1.5,0-1.8c0.1-1.7,0.6-3.1,1.5-4S73.2,27,75,27
		c1.2,0,2.2,0.2,3.1,0.6s1.5,1,1.9,1.7c0.4,0.7,0.7,1.4,0.7,2.2c0,0.1,0,0.2-0.1,0.3C80.4,32,80.3,32,80.2,32h-1
		c-0.1,0-0.2,0-0.3-0.1c-0.1-0.1-0.1-0.2-0.2-0.3c-0.2-1-0.6-1.8-1.3-2.2c-0.6-0.4-1.4-0.6-2.5-0.6c-2.4,0-3.6,1.3-3.7,4
		c0,0.4,0,0.9,0,1.7c0,0.8,0,1.3,0,1.7c0.1,2.6,1.3,3.9,3.7,3.9c1,0,1.8-0.2,2.4-0.6s1-1.1,1.3-2.2c0-0.2,0.1-0.3,0.2-0.3
		c0.1-0.1,0.2-0.1,0.3-0.1h1c0.1,0,0.2,0,0.3,0.1s0.1,0.2,0.1,0.3c0,0.8-0.3,1.5-0.7,2.2c-0.4,0.7-1.1,1.3-1.9,1.7s-1.9,0.6-3.1,0.6
		C73.2,41.7,71.8,41.2,70.9,40.2z"/>
	<path class="st0" d="M83.3,41.4c-0.1-0.1-0.1-0.2-0.1-0.3v-9.6c0-0.1,0-0.3,0.1-0.3s0.2-0.1,0.3-0.1h0.9c0.1,0,0.3,0,0.4,0.1
		c0.1,0.1,0.1,0.2,0.1,0.4v0.9c0.6-0.9,1.5-1.4,2.8-1.4h0.8c0.2,0,0.3,0,0.3,0.1c0.1,0.1,0.1,0.2,0.1,0.3v0.8c0,0.1,0,0.2-0.1,0.3
		c-0.1,0.1-0.2,0.1-0.3,0.1h-1.2c-0.7,0-1.3,0.2-1.8,0.7S85,34.3,85,35v6c0,0.1,0,0.2-0.1,0.3c-0.1,0.1-0.2,0.1-0.3,0.1h-0.9
		C83.5,41.5,83.4,41.5,83.3,41.4z"/>
	<path class="st0" d="M91.5,40.4c-0.8-0.9-1.3-2-1.4-3.5l0-0.7l0-0.7c0.1-1.5,0.5-2.6,1.4-3.5c0.8-0.9,1.9-1.3,3.3-1.3
		c1.5,0,2.7,0.5,3.5,1.4c0.8,1,1.2,2.2,1.2,3.9v0.4c0,0.1,0,0.2-0.1,0.3c-0.1,0.1-0.2,0.1-0.3,0.1H92V37c0,0.9,0.3,1.6,0.8,2.3
		c0.5,0.6,1.2,0.9,2,0.9c0.6,0,1.2-0.1,1.6-0.4c0.4-0.3,0.7-0.5,0.9-0.8c0.1-0.2,0.2-0.3,0.3-0.3c0.1,0,0.2-0.1,0.3-0.1h0.9
		c0.1,0,0.2,0,0.3,0.1c0.1,0.1,0.1,0.2,0.1,0.3c0,0.3-0.2,0.7-0.5,1.1s-0.9,0.8-1.6,1.1c-0.7,0.3-1.4,0.5-2.3,0.5
		C93.4,41.7,92.3,41.3,91.5,40.4z M97.7,35.5L97.7,35.5c0-1-0.3-1.8-0.8-2.4c-0.5-0.6-1.2-0.9-2.1-0.9c-0.9,0-1.6,0.3-2.1,0.9
		c-0.5,0.6-0.8,1.4-0.8,2.3v0.1H97.7z"/>
	<path class="st0" d="M102.7,40.3c-0.7-0.9-1.1-2.1-1.2-3.5l0-0.6l0-0.6c0.1-1.4,0.4-2.6,1.2-3.5s1.8-1.4,3.2-1.4s2.5,0.5,3.3,1.5
		v-4.7c0-0.1,0-0.2,0.1-0.3c0.1-0.1,0.2-0.1,0.3-0.1h0.9c0.1,0,0.2,0,0.3,0.1c0.1,0.1,0.1,0.2,0.1,0.3V41c0,0.1,0,0.2-0.1,0.3
		c-0.1,0.1-0.2,0.1-0.3,0.1h-0.9c-0.1,0-0.2,0-0.3-0.1c-0.1-0.1-0.1-0.2-0.1-0.3v-0.9c-0.8,1-1.9,1.5-3.4,1.5
		C104.5,41.7,103.4,41.3,102.7,40.3z M108.4,39.2c0.5-0.6,0.7-1.4,0.8-2.3c0-0.1,0-0.4,0-0.8c0-0.4,0-0.6,0-0.8
		c0-0.8-0.3-1.5-0.8-2.1c-0.5-0.6-1.2-0.9-2.1-0.9c-1,0-1.7,0.3-2.1,0.9c-0.4,0.6-0.7,1.4-0.7,2.4l0,0.6c0,2.6,1,3.9,2.9,3.9
		C107.2,40.1,107.9,39.8,108.4,39.2z"/>
	<path class="st0" d="M115,40.4c-0.8-0.9-1.3-2-1.4-3.5l0-0.7l0-0.7c0.1-1.5,0.5-2.6,1.4-3.5c0.8-0.9,1.9-1.3,3.3-1.3
		c1.5,0,2.7,0.5,3.5,1.4c0.8,1,1.2,2.2,1.2,3.9v0.4c0,0.1,0,0.2-0.1,0.3c-0.1,0.1-0.2,0.1-0.3,0.1h-7.1V37c0,0.9,0.3,1.6,0.8,2.3
		c0.5,0.6,1.2,0.9,2,0.9c0.6,0,1.2-0.1,1.6-0.4c0.4-0.3,0.7-0.5,0.9-0.8c0.1-0.2,0.2-0.3,0.3-0.3c0.1,0,0.2-0.1,0.3-0.1h0.9
		c0.1,0,0.2,0,0.3,0.1c0.1,0.1,0.1,0.2,0.1,0.3c0,0.3-0.2,0.7-0.5,1.1s-0.9,0.8-1.6,1.1c-0.7,0.3-1.4,0.5-2.3,0.5
		C116.9,41.7,115.8,41.3,115,40.4z M121.2,35.5L121.2,35.5c0-1-0.3-1.8-0.8-2.4c-0.5-0.6-1.2-0.9-2.1-0.9c-0.9,0-1.6,0.3-2.1,0.9
		c-0.5,0.6-0.8,1.4-0.8,2.3v0.1H121.2z"/>
	<path class="st0" d="M125.6,41.4c-0.1-0.1-0.1-0.2-0.1-0.3v-9.7c0-0.1,0-0.2,0.1-0.3c0.1-0.1,0.2-0.1,0.3-0.1h0.9
		c0.1,0,0.3,0,0.3,0.1c0.1,0.1,0.1,0.2,0.1,0.3v0.9c0.4-0.5,0.9-0.9,1.4-1.2s1.2-0.4,2-0.4c1.3,0,2.3,0.4,3,1.3
		c0.7,0.8,1.1,1.9,1.1,3.3V41c0,0.1,0,0.2-0.1,0.3c-0.1,0.1-0.2,0.1-0.3,0.1h-0.9c-0.1,0-0.2,0-0.3-0.1c-0.1-0.1-0.1-0.2-0.1-0.3
		v-5.6c0-1-0.2-1.7-0.7-2.3c-0.5-0.5-1.2-0.8-2-0.8c-0.9,0-1.6,0.3-2.1,0.8c-0.5,0.5-0.8,1.3-0.8,2.3V41c0,0.1,0,0.2-0.1,0.3
		c-0.1,0.1-0.2,0.1-0.3,0.1H126C125.8,41.5,125.7,41.5,125.6,41.4z"/>
	<path class="st0" d="M138.6,37.9v-5.5H137c-0.1,0-0.2,0-0.3-0.1c-0.1-0.1-0.1-0.2-0.1-0.3v-0.7c0-0.1,0-0.2,0.1-0.3
		c0.1-0.1,0.2-0.1,0.3-0.1h1.6v-3.4c0-0.1,0-0.2,0.1-0.3c0.1-0.1,0.2-0.1,0.3-0.1h0.9c0.1,0,0.2,0,0.3,0.1c0.1,0.1,0.1,0.2,0.1,0.3
		v3.4h2.5c0.1,0,0.2,0,0.3,0.1c0.1,0.1,0.1,0.2,0.1,0.3V32c0,0.1,0,0.2-0.1,0.3c-0.1,0.1-0.2,0.1-0.3,0.1h-2.5v5.3
		c0,0.7,0.1,1.2,0.3,1.6c0.2,0.4,0.6,0.5,1.2,0.5h1.2c0.1,0,0.2,0,0.3,0.1c0.1,0.1,0.1,0.2,0.1,0.3V41c0,0.1,0,0.2-0.1,0.3
		c-0.1,0.1-0.2,0.1-0.3,0.1h-1.4C139.6,41.5,138.6,40.3,138.6,37.9z"/>
	<path class="st0" d="M145.5,28.8c-0.1-0.1-0.1-0.2-0.1-0.3v-1.1c0-0.1,0-0.3,0.1-0.3c0.1-0.1,0.2-0.1,0.3-0.1h1.2
		c0.1,0,0.3,0,0.3,0.1c0.1,0.1,0.1,0.2,0.1,0.3v1.1c0,0.1,0,0.2-0.1,0.3c-0.1,0.1-0.2,0.1-0.3,0.1h-1.2
		C145.7,28.9,145.6,28.9,145.5,28.8z M145.7,41.4c-0.1-0.1-0.1-0.2-0.1-0.3v-9.7c0-0.1,0-0.2,0.1-0.3c0.1-0.1,0.2-0.1,0.3-0.1h0.9
		c0.1,0,0.2,0,0.3,0.1c0.1,0.1,0.1,0.2,0.1,0.3V41c0,0.1,0,0.2-0.1,0.3c-0.1,0.1-0.2,0.1-0.3,0.1H146
		C145.9,41.5,145.8,41.5,145.7,41.4z"/>
	<path class="st0" d="M151.5,41.3c-0.6-0.3-1-0.6-1.3-1.1c-0.3-0.5-0.5-1-0.5-1.6c0-0.9,0.4-1.6,1.1-2.2c0.7-0.6,1.7-1,3-1.1
		l3.1-0.4v-0.6c0-1.4-0.8-2.1-2.4-2.1c-0.6,0-1.1,0.1-1.5,0.4s-0.7,0.5-0.8,0.9c-0.1,0.1-0.1,0.2-0.2,0.3c-0.1,0-0.1,0.1-0.3,0.1
		h-0.8c-0.1,0-0.2,0-0.3-0.1c-0.1-0.1-0.1-0.2-0.1-0.3c0-0.3,0.1-0.7,0.4-1.1c0.3-0.4,0.7-0.8,1.4-1.1c0.6-0.3,1.4-0.5,2.2-0.5
		c1.5,0,2.6,0.4,3.3,1.1c0.7,0.7,1,1.6,1,2.6V41c0,0.1,0,0.2-0.1,0.3c-0.1,0.1-0.2,0.1-0.3,0.1h-0.9c-0.1,0-0.2,0-0.3-0.1
		c-0.1-0.1-0.1-0.2-0.1-0.3v-0.9c-0.3,0.4-0.7,0.8-1.3,1.1c-0.6,0.3-1.3,0.4-2.2,0.4C152.7,41.7,152.1,41.6,151.5,41.3z M156,39.4
		c0.6-0.6,0.9-1.4,0.9-2.5v-0.6l-2.4,0.3c-1,0.1-1.7,0.4-2.2,0.7c-0.5,0.3-0.8,0.7-0.8,1.2c0,0.6,0.2,1,0.7,1.3
		c0.5,0.3,1,0.4,1.6,0.4C154.7,40.2,155.4,39.9,156,39.4z"/>
	<path class="st0" d="M161.8,41.4c-0.1-0.1-0.1-0.2-0.1-0.3V27.5c0-0.1,0-0.3,0.1-0.3c0.1-0.1,0.2-0.1,0.3-0.1h0.9
		c0.1,0,0.2,0,0.3,0.1c0.1,0.1,0.1,0.2,0.1,0.3V41c0,0.1,0,0.2-0.1,0.3c-0.1,0.1-0.2,0.1-0.3,0.1h-0.9
		C162,41.5,161.9,41.5,161.8,41.4z"/>
	<path class="st0" d="M174.8,41l-4.6-13.1l0-0.2c0-0.1,0-0.2,0.1-0.3c0.1-0.1,0.2-0.1,0.3-0.1h1c0.1,0,0.3,0,0.4,0.1
		c0.1,0.1,0.1,0.2,0.2,0.3l4,11.6l4.1-11.6c0-0.1,0.1-0.2,0.2-0.3c0.1-0.1,0.2-0.1,0.4-0.1h1c0.1,0,0.2,0,0.3,0.1
		c0.1,0.1,0.1,0.2,0.1,0.3c0,0.1,0,0.2,0,0.2L177.5,41c-0.1,0.4-0.4,0.5-0.7,0.5h-1.2C175.2,41.5,174.9,41.3,174.8,41z"/>
	<path class="st0" d="M184.3,28.8c-0.1-0.1-0.1-0.2-0.1-0.3v-1.1c0-0.1,0-0.3,0.1-0.3c0.1-0.1,0.2-0.1,0.3-0.1h1.2
		c0.1,0,0.3,0,0.3,0.1c0.1,0.1,0.1,0.2,0.1,0.3v1.1c0,0.1,0,0.2-0.1,0.3c-0.1,0.1-0.2,0.1-0.3,0.1h-1.2
		C184.5,28.9,184.4,28.9,184.3,28.8z M184.4,41.4c-0.1-0.1-0.1-0.2-0.1-0.3v-9.7c0-0.1,0-0.2,0.1-0.3c0.1-0.1,0.2-0.1,0.3-0.1h0.9
		c0.1,0,0.2,0,0.3,0.1c0.1,0.1,0.1,0.2,0.1,0.3V41c0,0.1,0,0.2-0.1,0.3c-0.1,0.1-0.2,0.1-0.3,0.1h-0.9
		C184.6,41.5,184.5,41.5,184.4,41.4z"/>
	<path class="st0" d="M190.1,40.4c-0.8-0.9-1.3-2-1.4-3.5l0-0.7l0-0.7c0.1-1.5,0.5-2.6,1.4-3.5c0.8-0.9,1.9-1.3,3.3-1.3
		c1.5,0,2.7,0.5,3.5,1.4c0.8,1,1.2,2.2,1.2,3.9v0.4c0,0.1,0,0.2-0.1,0.3c-0.1,0.1-0.2,0.1-0.3,0.1h-7.1V37c0,0.9,0.3,1.6,0.8,2.3
		c0.5,0.6,1.2,0.9,2,0.9c0.6,0,1.2-0.1,1.6-0.4c0.4-0.3,0.7-0.5,0.9-0.8c0.1-0.2,0.2-0.3,0.3-0.3c0.1,0,0.2-0.1,0.3-0.1h0.9
		c0.1,0,0.2,0,0.3,0.1c0.1,0.1,0.1,0.2,0.1,0.3c0,0.3-0.2,0.7-0.5,1.1s-0.9,0.8-1.6,1.1c-0.7,0.3-1.4,0.5-2.3,0.5
		C192,41.7,190.9,41.3,190.1,40.4z M196.2,35.5L196.2,35.5c0-1-0.3-1.8-0.8-2.4c-0.5-0.6-1.2-0.9-2.1-0.9c-0.9,0-1.6,0.3-2.1,0.9
		c-0.5,0.6-0.8,1.4-0.8,2.3v0.1H196.2z"/>
	<path class="st0" d="M202.7,41.4c-0.1-0.1-0.2-0.2-0.2-0.4l-2.9-9.4l0-0.2c0-0.1,0-0.2,0.1-0.3c0.1-0.1,0.2-0.1,0.3-0.1h0.8
		c0.1,0,0.2,0,0.3,0.1c0.1,0.1,0.1,0.1,0.2,0.2l2.3,7.8l2.4-7.7c0-0.1,0.1-0.2,0.2-0.3c0.1-0.1,0.2-0.1,0.4-0.1h0.7
		c0.2,0,0.3,0,0.4,0.1c0.1,0.1,0.2,0.2,0.2,0.3l2.4,7.7l2.3-7.8c0-0.1,0.1-0.1,0.2-0.2c0.1-0.1,0.2-0.1,0.3-0.1h0.8
		c0.1,0,0.2,0,0.3,0.1c0.1,0.1,0.1,0.2,0.1,0.3l0,0.2l-2.9,9.4c-0.1,0.2-0.1,0.3-0.2,0.4c-0.1,0.1-0.2,0.1-0.4,0.1H210
		c-0.4,0-0.6-0.2-0.7-0.5l-2.4-7.4l-2.4,7.4c-0.1,0.3-0.3,0.5-0.7,0.5h-0.7C202.9,41.5,202.8,41.5,202.7,41.4z"/>
	<path class="st0" d="M217.2,40.4c-0.8-0.9-1.3-2-1.4-3.5l0-0.7l0-0.7c0.1-1.5,0.5-2.6,1.4-3.5c0.8-0.9,1.9-1.3,3.3-1.3
		c1.5,0,2.7,0.5,3.5,1.4c0.8,1,1.2,2.2,1.2,3.9v0.4c0,0.1,0,0.2-0.1,0.3c-0.1,0.1-0.2,0.1-0.3,0.1h-7.1V37c0,0.9,0.3,1.6,0.8,2.3
		c0.5,0.6,1.2,0.9,2,0.9c0.6,0,1.2-0.1,1.6-0.4c0.4-0.3,0.7-0.5,0.9-0.8c0.1-0.2,0.2-0.3,0.3-0.3c0.1,0,0.2-0.1,0.3-0.1h0.9
		c0.1,0,0.2,0,0.3,0.1c0.1,0.1,0.1,0.2,0.1,0.3c0,0.3-0.2,0.7-0.5,1.1s-0.9,0.8-1.6,1.1c-0.7,0.3-1.4,0.5-2.3,0.5
		C219.1,41.7,218,41.3,217.2,40.4z M223.3,35.5L223.3,35.5c0-1-0.3-1.8-0.8-2.4c-0.5-0.6-1.2-0.9-2.1-0.9c-0.9,0-1.6,0.3-2.1,0.9
		c-0.5,0.6-0.8,1.4-0.8,2.3v0.1H223.3z"/>
	<path class="st0" d="M227.8,41.4c-0.1-0.1-0.1-0.2-0.1-0.3v-9.6c0-0.1,0-0.3,0.1-0.3c0.1-0.1,0.2-0.1,0.3-0.1h0.9
		c0.1,0,0.3,0,0.4,0.1c0.1,0.1,0.1,0.2,0.1,0.4v0.9c0.6-0.9,1.5-1.4,2.8-1.4h0.8c0.1,0,0.3,0,0.3,0.1c0.1,0.1,0.1,0.2,0.1,0.3v0.8
		c0,0.1,0,0.2-0.1,0.3c-0.1,0.1-0.2,0.1-0.3,0.1H232c-0.7,0-1.3,0.2-1.8,0.7c-0.4,0.4-0.6,1-0.6,1.8v6c0,0.1,0,0.2-0.1,0.3
		c-0.1,0.1-0.2,0.1-0.3,0.1h-0.9C228,41.5,227.9,41.5,227.8,41.4z"/>
</g>
</svg>
